<svg xmlns="http://www.w3.org/2000/svg" viewBox="0 0 800 600" width="800" height="600" role="img" aria-label="Участок берега">
	<defs>
		<linearGradient id="bg" x1="0" y1="0" x2="0" y2="1">
			<stop offset="0" stop-color="#1d4a63"/>
			<stop offset="1" stop-color="#c9b087"/>
		</linearGradient>
	</defs>
	<rect width="800" height="600" fill="url(#bg)"/>
	
			<path d="M0 200 Q200 170 400 205 T800 190 L800 600 L0 600Z" fill="#c9b087" opacity="0.85"/>
			<path d="M0 180 Q200 150 400 185 T800 170 L800 240 L0 250Z" fill="#2a7ba0" opacity="0.5"/>

			<!-- h1: скопление пластика (26% / 58%) -->
			<g transform="translate(208 348)" opacity="0.85">
				<circle cx="0" cy="0" r="26" fill="#5b6b78" opacity="0.5"/>
				<circle cx="-10" cy="6" r="9" fill="#e8eef2"/>
				<circle cx="8" cy="-6" r="7" fill="#dbe6ec"/>
				<circle cx="10" cy="10" r="6" fill="#c8d6de"/>
			</g>

			<!-- h2: пятно у кромки воды (68% / 40%) -->
			<ellipse cx="544" cy="240" rx="42" ry="22" fill="#3a3f33" opacity="0.55"/>

			<!-- h3: брошенные сети (47% / 74%) -->
			<g transform="translate(376 444)" opacity="0.75" stroke="#7c8f6a" stroke-width="3" fill="none">
				<path d="M-30 -14 L30 -14 M-30 0 L30 0 M-30 14 L30 14"/>
				<path d="M-22 -20 L-22 20 M0 -20 L0 20 M22 -20 L22 20"/>
			</g>

			<!-- отвлекающие детали -->
			<circle cx="660" cy="470" r="10" fill="#b8a582" opacity="0.6"/>
			<circle cx="120" cy="500" r="8" fill="#b8a582" opacity="0.5"/>
	<text x="24" y="40" font-family="system-ui, sans-serif" font-size="24" fill="#eaf3ee" opacity="0.7">Участок берега</text>
	<text x="24" y="68" font-family="system-ui, sans-serif" font-size="16" fill="#eaf3ee" opacity="0.45">съёмка с дрона · отметьте подозрительные места</text>
</svg>
